<?xml version="1.0" encoding="UTF-8"?><svg id="Calque_1" xmlns="http://www.w3.org/2000/svg" xmlns:xlink="http://www.w3.org/1999/xlink" viewBox="0 0 1638 1063.33"><defs><style>.cls-1{fill:url(#Dégradé_sans_nom_20);}.cls-2{fill:url(#Dégradé_sans_nom_6-2);}.cls-3{fill:url(#Dégradé_sans_nom_8);}.cls-4{fill:url(#Dégradé_sans_nom_20-2);}.cls-5{fill:url(#Dégradé_sans_nom_9);}.cls-6{fill:url(#Dégradé_sans_nom_6);}</style><linearGradient id="Dégradé_sans_nom_20" x1="819.3" y1="1040.14" x2="819.3" y2="33.57" gradientTransform="matrix(1, 0, 0, 1, 0, 0)" gradientUnits="userSpaceOnUse"><stop offset="0" stop-color="#1d1d1b"/><stop offset="1" stop-color="#3c3c3b"/></linearGradient><linearGradient id="Dégradé_sans_nom_20-2" x1=".6" y1="876.84" x2="1638" y2="876.84" xlink:href="#Dégradé_sans_nom_20"/><linearGradient id="Dégradé_sans_nom_6" x1="510.22" y1="876.93" x2="2148.22" y2="876.93" gradientTransform="translate(2148.22) rotate(-180) scale(1 -1)" gradientUnits="userSpaceOnUse"><stop offset="0" stop-color="#b57230"/><stop offset="1" stop-color="#d9aa38"/></linearGradient><linearGradient id="Dégradé_sans_nom_8" x1="1861" y1="876.93" x2="2147.62" y2="876.93" gradientTransform="translate(2148.22) rotate(-180) scale(1 -1)" gradientUnits="userSpaceOnUse"><stop offset=".52" stop-color="#b57230"/><stop offset="1" stop-color="#d9aa38"/></linearGradient><linearGradient id="Dégradé_sans_nom_9" x1="2069.5" y1="1075.22" x2="2183.03" y2="656.51" gradientTransform="translate(2148.22) rotate(-180) scale(1 -1)" gradientUnits="userSpaceOnUse"><stop offset="0" stop-color="#b57230"/><stop offset=".65" stop-color="#d9aa38"/></linearGradient><linearGradient id="Dégradé_sans_nom_6-2" x1="1737.9" x2="2147.62" xlink:href="#Dégradé_sans_nom_6"/></defs><rect class="cls-1" x=".6" width="1637.4" height="1063.33"/><path class="cls-4" d="M1638,869.24S389.05,1054.9,.6,690.53c336.23,455.75,1637.4,365.32,1637.4,365.32v-186.6Z"/><path class="cls-6" d="M.6,690.53s245.28,320.59,1637.4,372.8H0c0-143.23,.6-199.29,.6-372.8Z"/><polygon class="cls-3" points=".6 690.53 287.22 1063.33 151 1063.33 .6 690.53"/><polygon class="cls-5" points="0 1063.33 151 1063.33 .6 690.53 0 1063.33"/><polygon class="cls-2" points=".6 690.53 410.32 1063.33 277.38 1063.33 .6 690.53"/></svg>