<?xml version="1.0" encoding="utf-8"?>
<!-- Generator: Adobe Illustrator 26.0.3, SVG Export Plug-In . SVG Version: 6.00 Build 0)  -->
<svg version="1.1" id="Calque_1" xmlns="http://www.w3.org/2000/svg" xmlns:xlink="http://www.w3.org/1999/xlink" x="0px" y="0px"
	 viewBox="0 0 500 500" style="enable-background:new 0 0 500 500;" xml:space="preserve">
<style type="text/css">
	.st0{fill:#DAAB39;}
	.st1{fill:#686868;}
	.st2{fill:#A8A8A8;}
	.st3{fill:#FE8800;}
	.st4{fill:#FEDAA8;}
	.st5{fill:#FEC373;}
</style>
<path class="st0" d="M58.07,264.59c0-8.73,0-17.46,0-26.19c0.63-6.29,0.66-12.61,1.14-18.91c0.65-8.5,2.82-16.68,5.24-24.8
	c7.32-24.57,19.1-46.84,35.46-66.5c16.64-20,36.19-36.6,59.44-48.72c18.28-9.53,37.39-16.49,57.79-19.48
	c10.22-1.5,20.58-1.53,30.91-1.54c1.04,0,2,0.09,2.57,1.13c0.86,1.62,0.71,3.39,0.72,5.11c0.05,18.35,0.05,36.7,0,55.06
	c0,1.6,0.1,3.23-0.58,4.75c-0.75,2.18-2.64,2.38-4.53,2.58c-9.56,1.04-18.91,2.84-27.79,6.83c-14.62,6.57-26.21,16.49-34.66,30.15
	c-8.02,12.97-12.21,27.14-11.65,42.23c0.85,22.96,9.84,42.4,27.57,57.51c2.01,1.71,4.77,2.89,5.49,5.87
	c-0.14,2.35-2.09,2.97-3.75,3.66c-17.86,7.42-33.46,18.14-46.35,32.53c-16.39,18.3-26.86,39.59-31.02,63.89
	c-0.96,5.64-1.65,11.31-1.66,17.05c-1.7,5.8-3.57,6.41-7.77,2.2c-13.42-13.44-25.01-28.25-34.25-44.93
	c-9.73-17.57-16.61-36.13-20.39-55.82c-1.24-6.45-1.18-13.08-1.58-19.64C58.35,267.26,58.84,265.87,58.07,264.59z"/>
<path class="st1" d="M379.06,391.46c-12.9,12.43-27.64,22.21-43.56,30.28c-20.66,10.48-42.59,16.65-65.56,19.35
	c-2.04,0.24-4.22-0.53-6.11,0.84c-4.74,0-9.48,0-14.22,0c-1.16-0.92-1.58-2.17-1.64-3.61c-0.06-1.24-0.1-2.49-0.1-3.73
	c-0.01-47.95-0.01-95.91,0.01-143.86c0-1.86-0.08-3.74,0.45-5.56c0.16-0.42,0.34-0.83,0.55-1.23c2.15-2.19,5.13-1.78,7.72-2.04
	c12.47-1.24,23.93-5.25,34.6-11.71c1.18-0.71,2.33-1.45,3.79-1.33c20.12,6.14,36.25,18.39,50.45,33.42
	c18.88,19.99,30,43.73,33.88,70.94c0.6,4.2,0.35,8.45,1.25,12.61C381.03,387.91,380.23,389.76,379.06,391.46z"/>
<path class="st2" d="M249.53,284.09c0,50.74,0,101.49,0.01,152.23c0,1.87,0.06,3.74,0.09,5.61c-3.49,0-6.98,0-10.48,0
	c-6.66-0.67-13.36-0.62-20.02-1.18c-11.39-0.96-22.28-4.13-32.99-7.85c-19.8-6.89-38-16.82-54.61-29.65
	c-3.16-2.44-6.08-5.17-9.29-7.51c-3.32-2.42-1.41-5.66-1.53-8.59c0.92-50.38,33.59-97.11,81.01-115.86c1.03-0.41,2.01-0.93,3.02-1.4
	c1.87-1.19,3.39,0.02,4.8,0.87c10.61,6.38,22.01,10.19,34.41,11C245.97,281.9,248.24,281.95,249.53,284.09z"/>
<path class="st3" d="M379.06,391.46c-0.56-19.46-4.19-38.24-12.81-55.83c-14.99-30.58-38.35-52.21-69.92-64.99
	c-0.44-0.18-0.85-0.44-1.28-0.67c-0.57-2.72,1.73-3.7,3.24-4.95c10.49-8.65,18.59-19.07,23.42-31.81
	c10.14-26.76,6.82-52.04-10.12-74.94c-14.24-19.25-33.93-29.46-57.9-31.21c-1.36-0.1-2.78,0.01-3.8-1.17
	c-0.08-0.18-0.16-0.35-0.24-0.53c0-22.14,0-44.28,0-66.43c29.37-0.49,57.34,5.84,83.47,18.98c55.39,27.84,91.3,72.02,103.75,132.75
	c14.16,69.12-5.38,129.08-55.5,178.91C380.67,390.28,379.83,390.84,379.06,391.46z"/>
<path class="st4" d="M249.53,284.09c-12.75-0.76-25.08-3.16-36.45-9.31c-2.83-1.53-5.56-3.26-8.34-4.89
	c-17.92-12.87-29.12-30-33.11-51.81c-6.86-37.51,15.89-76.08,52-88.18c8.47-2.84,17.13-4.24,26.02-4.53c0,0-0.08,0.14-0.08,0.14
	c1.69,1.14,1.74,2.93,1.75,4.68c0.1,49.65,0.09,99.31,0,148.96c0,1.72,0.05,3.55-1.66,4.7L249.53,284.09z"/>
<path class="st5" d="M249.65,283.85c-0.01-50.79-0.02-101.58-0.03-152.36c0-1.99-0.04-3.98-0.05-5.97
	c19.92-0.23,37.28,6.51,52.19,19.53c13.98,12.21,22.75,27.51,25.93,45.85c3.98,22.94-1.38,43.65-15.3,62.21
	c-4.9,6.53-11.04,11.78-17.33,16.88c-8.93,5.37-18.13,10.11-28.49,12.13C260.98,283.2,255.39,284.25,249.65,283.85z"/>
</svg>
