<svg id="Calque_1" data-name="Calque 1" xmlns="http://www.w3.org/2000/svg" xmlns:xlink="http://www.w3.org/1999/xlink" viewBox="0 0 490.24 120.94"><defs><style>.cls-1{fill:url(#Dégradé_sans_nom_5);}.cls-2{fill:url(#Dégradé_sans_nom_22);}.cls-3{fill:url(#Dégradé_sans_nom_7);}.cls-4{fill:url(#Dégradé_sans_nom_6);}.cls-5{fill:#0e0e0e;}</style><linearGradient id="Dégradé_sans_nom_5" x1="2.79" y1="125" x2="120.79" y2="125" gradientUnits="userSpaceOnUse"><stop offset="0.25" stop-color="#b67331"/><stop offset="0.69" stop-color="#daab39"/></linearGradient><linearGradient id="Dégradé_sans_nom_22" x1="2.79" y1="126.04" x2="115.54" y2="126.04" gradientUnits="userSpaceOnUse"><stop offset="0" stop-color="#49a3a3"/><stop offset="1" stop-color="#aad9dd"/></linearGradient><linearGradient id="Dégradé_sans_nom_7" x1="8.66" y1="111.43" x2="109.48" y2="155.25" gradientUnits="userSpaceOnUse"><stop offset="0" stop-color="#b67331"/><stop offset="0.6" stop-color="#daab39"/></linearGradient><linearGradient id="Dégradé_sans_nom_6" x1="4.14" y1="96.46" x2="109.48" y2="136.66" gradientUnits="userSpaceOnUse"><stop offset="0.28" stop-color="#daab39"/><stop offset="0.85" stop-color="#b67331"/></linearGradient></defs><path class="cls-1" d="M119.62,124.32,98,73.49a14.71,14.71,0,0,0-13.54-9H39.09a14.72,14.72,0,0,0-13.54,9L4,124.32a14.7,14.7,0,0,0,4.07,17l51.53,43.33a3.47,3.47,0,0,0,4.46,0l51.52-43.33A14.72,14.72,0,0,0,119.62,124.32ZM61.79,139a20.81,20.81,0,1,1,20.8-20.8A20.81,20.81,0,0,1,61.79,139Z" transform="translate(-2.79 -64.53)"/><path class="cls-2" d="M31.55,66.62a14.66,14.66,0,0,0-6,6.87L4,124.32a14.7,14.7,0,0,0,4.07,17l51.53,43.33a3.47,3.47,0,0,0,4.46,0l51.52-43.33C49.18,135.56,31.63,66.91,31.55,66.62Z" transform="translate(-2.79 -64.53)"/><path class="cls-3" d="M33.35,72.29a3.79,3.79,0,0,0-6.79-.76,14.48,14.48,0,0,0-1,2L4.05,124.1a15.05,15.05,0,0,0,4.16,17.39l51.14,43a3.78,3.78,0,0,0,4.88,0L109,146.87a3.8,3.8,0,0,0-1.81-6.64C58.51,131.62,38.91,88,33.35,72.29Z" transform="translate(-2.79 -64.53)"/><path class="cls-4" d="M96.41,157.42l19.13-16.09c-66.36-5.77-83.91-74.42-84-74.71a14.66,14.66,0,0,0-6,6.87L4,124.32a14.66,14.66,0,0,0-1.12,7C2.9,131.33,36.6,160.24,96.41,157.42Z" transform="translate(-2.79 -64.53)"/><path class="cls-5" d="M185.77,101.38h-13v37.27H159.57V101.38h-13V89.09h39.18Z" transform="translate(-2.79 -64.53)"/><path class="cls-5" d="M222.46,119.17a24.35,24.35,0,0,1-.27,3.49H194.82c.83,4.38,3.52,6.65,7.53,6.65a7.35,7.35,0,0,0,6.66-3.58h12.64c-2.6,8.72-10.05,14.17-19.3,14.17-11.51,0-20-8.71-20-20.39s8.46-20.34,20-20.34c11.88,0,20.11,8.79,20.11,20ZM195,115.37H210c-1.12-3.82-3.77-5.89-7.6-5.89S196.07,111.57,195,115.37Z" transform="translate(-2.79 -64.53)"/><path class="cls-5" d="M266.18,100.38v38.23h-9.82l-1.09-2.7a17.09,17.09,0,0,1-11.12,4c-11.27,0-19.33-8.52-19.33-20.41s8.06-20.26,19.33-20.26a17.11,17.11,0,0,1,11.26,4.1l1.3-3ZM254.1,119.52c0-5-3.5-8.69-8.25-8.69s-8.26,3.73-8.26,8.69,3.5,8.72,8.26,8.72S254.1,124.52,254.1,119.52Z" transform="translate(-2.79 -64.53)"/><path class="cls-5" d="M329.43,114.67v24h-12.7V116.3c0-4-1.41-5.92-4.11-5.92-3.49,0-5.28,2.49-5.28,7.31v21H295V116.3c0-3.87-1.4-5.92-4.06-5.92-3.45,0-5.33,2.55-5.33,7.31v21h-12.7V100.42h8.93l1.81,4.11a14,14,0,0,1,10.77-5.24A12.26,12.26,0,0,1,305,104.92a14.21,14.21,0,0,1,11.33-5.63C324.18,99.29,329.43,105.67,329.43,114.67Z" transform="translate(-2.79 -64.53)"/><path class="cls-5" d="M366.05,126.15v12.5H335.7V89.09H349v37.06Z" transform="translate(-2.79 -64.53)"/><path class="cls-5" d="M431.69,139.9c-11.82,0-20.36-8.59-20.36-20.42s8.5-20.26,20.4-20.26c10.36,0,18.13,6.78,19.52,17H438.88a7.51,7.51,0,0,0-7.19-5.15c-4.46,0-7.64,3.52-7.64,8.5s3.22,8.58,7.64,8.58a7.47,7.47,0,0,0,7.22-5.58h12.47c-1.43,10.39-9.31,17.38-19.69,17.38Z" transform="translate(-2.79 -64.53)"/><path class="cls-5" d="M478.05,138.65l-9.23-16.17v16.17h-12.7v-52h12.7V115.4l8.78-15h14.26l-11.49,18.22,12.65,20Z" transform="translate(-2.79 -64.53)"/><path class="cls-5" d="M388.21,99.17c-12,0-20.67,8.51-20.67,20.36s8.65,20.37,20.67,20.37,20.67-8.56,20.67-20.37S400.19,99.17,388.21,99.17ZM384.12,127l-.37-.23,2.24-6a4.69,4.69,0,1,1,3.88-.08l2.71,6.09-.28.17Z" transform="translate(-2.79 -64.53)"/></svg>