<?xml version="1.0" encoding="UTF-8"?><svg id="Calque_1" xmlns="http://www.w3.org/2000/svg" xmlns:xlink="http://www.w3.org/1999/xlink" viewBox="0 0 346.6 215.78"><defs><style>.cls-1{fill:url(#Dégradé_sans_nom_2);}.cls-2{fill:url(#Dégradé_sans_nom_5);}.cls-3{fill:url(#Dégradé_sans_nom);}.cls-4{fill:url(#Dégradé_sans_nom_3);}.cls-5{fill:url(#Dégradé_sans_nom_4);}.cls-6{fill:#1d1d1b;}</style><linearGradient id="Dégradé_sans_nom" x1="117.15" y1="138.09" x2="235.08" y2="138.09" gradientTransform="translate(-2.79 -77.63)" gradientUnits="userSpaceOnUse"><stop offset=".25" stop-color="#b67331"/><stop offset=".69" stop-color="#daab39"/></linearGradient><linearGradient id="Dégradé_sans_nom_2" x1="117.15" y1="139.14" x2="229.91" y2="139.14" gradientTransform="translate(-2.79 -77.63)" gradientUnits="userSpaceOnUse"><stop offset="0" stop-color="#49a3a3"/><stop offset="1" stop-color="#aad9dd"/></linearGradient><linearGradient id="Dégradé_sans_nom_3" x1="122.95" y1="124.49" x2="223.77" y2="168.31" gradientTransform="translate(-2.79 -77.63)" gradientUnits="userSpaceOnUse"><stop offset="0" stop-color="#b67331"/><stop offset=".6" stop-color="#daab39"/></linearGradient><linearGradient id="Dégradé_sans_nom_4" x1="118.41" y1="109.56" x2="223.75" y2="149.76" gradientTransform="translate(-2.79 -77.63)" gradientUnits="userSpaceOnUse"><stop offset=".28" stop-color="#daab39"/><stop offset=".85" stop-color="#b67331"/></linearGradient><linearGradient id="Dégradé_sans_nom_5" x1="124.85" y1="151.73" x2="221.75" y2="151.73" gradientTransform="translate(0 341.56) scale(1 -1)" gradientUnits="userSpaceOnUse"><stop offset=".28" stop-color="#daab39"/><stop offset=".85" stop-color="#b67331"/></linearGradient></defs><g><path class="cls-3" d="M231.12,59.8l-21.6-50.8c-2.3-5.4-7.6-9-13.5-9h-45.4c-5.9,0-11.2,3.6-13.5,9l-21.6,50.8c-2.5,5.9-.9,12.8,4.1,17l51.5,43.3c1.3,1.1,3.2,1.1,4.5,0l51.5-43.3c4.9-4.2,6.5-11.1,4-17Zm-57.8,14.6c-11.5,0-20.8-9.3-20.8-20.8s9.3-20.8,20.8-20.8,20.8,9.3,20.8,20.8h0c0,11.5-9.3,20.8-20.8,20.8Z"/><path class="cls-1" d="M143.02,2.1c-2.7,1.6-4.8,4-6,6.9l-21.5,50.8c-2.5,5.9-.9,12.8,4.1,17l51.5,43.3c1.3,1.1,3.2,1.1,4.5,0l51.5-43.3C160.72,71,143.12,2.4,143.02,2.1Z"/><path class="cls-4" d="M144.82,7.7c-.7-2-2.9-3-4.8-2.3-.8,.3-1.5,.8-2,1.6-.4,.6-.7,1.3-1,2l-21.5,50.5c-2.6,6.1-.9,13.1,4.2,17.4l51.1,43c1.4,1.2,3.5,1.2,4.9,0l44.8-37.6c1.6-1.4,1.8-3.8,.4-5.4-.6-.7-1.4-1.1-2.2-1.3-48.7-8.5-68.3-52.2-73.9-67.9Z"/><path class="cls-5" d="M207.92,92.9l19.1-16.1C160.62,71,143.12,2.4,143.02,2.1c-2.7,1.6-4.8,4-6,6.9l-21.5,50.8c-.9,2.2-1.3,4.6-1.1,7,0,0,33.7,28.9,93.5,26.1Z"/></g><g><path class="cls-6" d="M39.2,135.63h-13v37.3H13v-37.3H0v-12.3H39.2v12.3Z"/><path class="cls-6" d="M75.9,153.43c0,1.2-.1,2.3-.3,3.5h-27.4c.8,4.4,3.5,6.7,7.5,6.7,2.7,.1,5.3-1.2,6.7-3.6h12.6c-2.6,8.7-10,14.2-19.3,14.2-11.5,0-20-8.7-20-20.4s8.5-20.3,20-20.3c12-.1,20.2,8.7,20.2,19.9Zm-27.4-3.8h15c-1.1-3.8-3.8-5.9-7.6-5.9s-6.4,2.1-7.4,5.9Z"/><path class="cls-6" d="M119.7,134.63v38.2h-9.8l-1.1-2.7c-3.1,2.6-7.1,4-11.1,4-11.3,0-19.3-8.5-19.3-20.4s8.1-20.3,19.3-20.3c4.1,0,8.1,1.4,11.3,4.1l1.3-3,9.4,.1Zm-12.1,19.2c0-5-3.5-8.7-8.2-8.7s-8.3,3.7-8.3,8.7,3.5,8.7,8.3,8.7,8.2-3.7,8.2-8.7Z"/><path class="cls-6" d="M182.9,148.93v24h-12.7v-22.4c0-4-1.4-5.9-4.1-5.9-3.5,0-5.3,2.5-5.3,7.3v21h-12.3v-22.4c0-3.9-1.4-5.9-4.1-5.9-3.5,0-5.3,2.6-5.3,7.3v21h-12.7v-38.2h8.9l1.8,4.1c2.6-3.3,6.6-5.2,10.8-5.2,4.3-.1,8.3,2,10.6,5.6,2.7-3.5,6.9-5.6,11.3-5.6,7.9-.1,13.1,6.3,13.1,15.3h0Z"/><path class="cls-6" d="M219.5,160.43v12.5h-30.3v-49.6h13.3v37.1h17Z"/><path class="cls-6" d="M285.2,174.13c-11.8,0-20.4-8.6-20.4-20.4s8.5-20.3,20.4-20.3c10.4,0,18.1,6.8,19.5,17h-12.3c-1-3.1-3.9-5.2-7.2-5.2-4.5,0-7.6,3.5-7.6,8.5s3.2,8.6,7.6,8.6c3.4,0,6.4-2.3,7.2-5.6h12.5c-1.5,10.5-9.4,17.5-19.7,17.4h0Z"/><path class="cls-6" d="M331.5,172.93l-9.2-16.2v16.2h-12.7v-52h12.7v28.8l8.8-15h14.3l-11.5,18.2,12.7,20h-15.1Z"/><path class="cls-6" d="M241.7,133.43c-12,0-20.7,8.5-20.7,20.4s8.6,20.4,20.7,20.4,20.7-8.6,20.7-20.4-8.7-20.4-20.7-20.4Zm-4.1,27.8l-.4-.2,2.2-6c-2.4-1-3.5-3.8-2.5-6.2s3.8-3.5,6.2-2.5c2.4,1,3.5,3.8,2.5,6.2-.4,1-1.3,1.9-2.3,2.4l2.7,6.1-.3,.2h-8.1Z"/></g><g><path class="cls-6" d="M78.5,212.18v-10.8h7v1.8h-5.2v2.5h4.6v1.8h-4.6v3h5.2v1.8h-7v-.1Z"/><path class="cls-6" d="M87.2,212.18v-7.5h1.8v.8c.6-.6,1.4-1,2.2-1,1.7,0,2.9,1.2,2.9,3.1v4.5h-1.8v-4.1c0-1.3-.7-1.8-1.6-1.8-1,0-1.8,.8-1.8,1.9v4l-1.7,.1h0Z"/><path class="cls-6" d="M96.3,204.68c.4,0,.7-.3,.7-.6v-1.4h1.8v2h1.9v1.8h-1.9v2.7c0,1.2,.2,1.5,.9,1.5,.3,0,.6,0,1-.1v1.7c-.3,.1-.8,.2-1.2,.2-1.7,0-2.4-.8-2.4-2.7v-3.2h-1.4v-1.8l.6-.1h0Z"/><path class="cls-6" d="M105.7,204.48c2.1,0,3.6,1.6,3.6,3.8,0,.3,0,.6-.1,.9h-5.6c.3,.9,1.1,1.5,2.2,1.5,.7,0,1.4-.3,1.9-.8l1.1,1.1c-.7,.8-1.8,1.2-3,1.2-2.3,0-4-1.7-4-3.9s1.7-3.8,3.9-3.8Zm-2.1,3.3h4c-.2-1.1-.9-1.7-2-1.7-1,0-1.8,.7-2,1.7Z"/><path class="cls-6" d="M110.9,212.18v-7.5h1.8v.9c.5-.6,1.3-1,2.2-1v1.7h-.2c-1.1,0-2.1,.8-2.1,1.9v4h-1.7Z"/><path class="cls-6" d="M116.4,204.68h1.8v1c.5-.6,1.4-1.1,2.3-1.1,2.2,0,3.7,1.7,3.7,3.9s-1.6,3.9-3.7,3.9c-.9,0-1.8-.5-2.3-1.1v4.5h-1.8v-11.1Zm1.8,3.7c0,1.2,1,2.1,2.1,2.1s2.1-1,2.1-2.1-1-2.1-2.1-2.1-2.1,.9-2.1,2.1Z"/><path class="cls-6" d="M125.8,212.18v-7.5h1.8v.9c.5-.6,1.3-1,2.2-1v1.7h-.2c-1.1,0-2.1,.8-2.1,1.9v4h-1.7Z"/><path class="cls-6" d="M132.2,201.18c.6,0,1,.5,1,1,0,.6-.5,1.1-1,1.1s-1-.5-1-1.1c-.1-.5,.4-1,1-1Zm-.9,11v-7.5h1.8v7.5h-1.8Z"/><path class="cls-6" d="M135.6,209.78c.6,.5,1.4,.9,2.3,.9,.8,0,1.3-.3,1.3-.7,0-.6-.9-.8-1.5-1-1.2-.3-2.9-.7-2.9-2.3,0-1.3,1.2-2.2,2.9-2.2,1.2,0,2.2,.4,3,1.1l-1,1.2c-.5-.5-1.3-.7-2-.7-.8,0-1.2,.3-1.2,.6,0,.4,.8,.6,1.6,.8,1.5,.3,2.8,.9,2.8,2.5,0,1.3-1.3,2.3-3.2,2.3-1.2,0-2.4-.5-3.3-1.3l1.2-1.2h0Z"/><path class="cls-6" d="M146,204.48c2.1,0,3.6,1.6,3.6,3.8,0,.3,0,.6-.1,.9h-5.6c.3,.9,1.1,1.5,2.2,1.5,.7,0,1.4-.3,1.9-.8l1.1,1.1c-.7,.8-1.8,1.2-3,1.2-2.3,0-4-1.7-4-3.9s1.7-3.8,3.9-3.8Zm-2.1,3.3h4c-.1-1.1-.9-1.7-2-1.7-1,0-1.9,.7-2,1.7Z"/><path class="cls-6" d="M156,209.28c.9,.8,2,1.3,3.3,1.3,1.4,0,2.3-.6,2.3-1.4s-.9-1.2-2.7-1.8c-1.8-.5-3.6-1.2-3.6-3.1s1.6-3,3.9-3c1.5,0,3,.7,3.9,1.7l-1.3,1.2c-.7-.8-1.7-1.2-2.8-1.2-1.2,0-2,.5-2,1.2s.8,1,2.5,1.5c2,.6,3.7,1.4,3.7,3.4s-1.9,3.3-4.2,3.3c-1.8,0-3.3-.6-4.5-1.8l1.5-1.3h0Z"/><path class="cls-6" d="M168.5,204.48c2.1,0,3.6,1.6,3.6,3.8,0,.3,0,.6-.1,.9h-5.6c.3,.9,1.1,1.5,2.2,1.5,.7,0,1.4-.3,1.9-.8l1.1,1.1c-.7,.8-1.8,1.2-3,1.2-2.3,0-4-1.7-4-3.9s1.8-3.8,3.9-3.8Zm-2.1,3.3h4c-.1-1.1-.9-1.7-2-1.7-.9,0-1.8,.7-2,1.7Z"/><path class="cls-6" d="M173.4,208.38c0-2.2,1.8-3.9,3.9-3.9,1.1,0,2.1,.5,2.8,1.2l-1.2,1.2c-.4-.4-1-.7-1.6-.7-1.2,0-2.1,1-2.1,2.1s1,2.1,2.1,2.1c.6,0,1.2-.3,1.6-.7l1.2,1.3c-.7,.8-1.7,1.2-2.8,1.2-2.1,.1-3.9-1.6-3.9-3.8Z"/><path class="cls-6" d="M181.7,212.18v-7.5h1.8v.9c.5-.6,1.3-1,2.2-1v1.7h-.2c-1.1,0-2.1,.8-2.1,1.9v4h-1.7Z"/><path class="cls-6" d="M190.2,204.48c2.1,0,3.6,1.6,3.6,3.8,0,.3,0,.6-.1,.9h-5.6c.3,.9,1.1,1.5,2.2,1.5,.7,0,1.4-.3,1.9-.8l1.1,1.1c-.7,.8-1.8,1.2-3,1.2-2.3,0-4-1.7-4-3.9s1.8-3.8,3.9-3.8Zm-2.1,3.3h4c-.1-1.1-.9-1.7-2-1.7-.9,0-1.8,.7-2,1.7Z"/><path class="cls-6" d="M195.5,204.68c.4,0,.7-.3,.7-.6v-1.4h1.8v2h1.9v1.8h-1.9v2.7c0,1.2,.2,1.5,.9,1.5,.3,0,.6,0,1-.1v1.7c-.3,.1-.8,.2-1.2,.2-1.7,0-2.4-.8-2.4-2.7v-3.2h-1.4v-1.8l.6-.1h0Z"/><path class="cls-6" d="M206,201.38h1.5l3.5,6.3,3.5-6.3h1.5v10.8h-1.8v-6.6l-2.6,4.6h-1.3l-2.6-4.6v6.6h-1.7v-10.8Z"/><path class="cls-6" d="M221.5,204.48c.9,0,1.8,.5,2.3,1.1v-.9h1.8v7.5h-1.8v-1c-.5,.6-1.4,1.1-2.3,1.1-2.1,0-3.7-1.8-3.7-3.9s1.5-3.9,3.7-3.9Zm-2,3.9c0,1.2,1,2.1,2.1,2.1s2.1-1,2.1-2.1-1-2.1-2.1-2.1-2.1,.9-2.1,2.1Z"/><path class="cls-6" d="M227.6,212.18v-7.5h1.8v.8c.6-.6,1.4-1,2.2-1,1.7,0,2.9,1.2,2.9,3.1v4.5h-1.8v-4.1c0-1.3-.7-1.8-1.6-1.8-1,0-1.8,.8-1.8,1.9v4l-1.7,.1h0Z"/><path class="cls-6" d="M239.9,204.48c.9,0,1.8,.5,2.3,1.1v-.9h1.8v7.5h-1.8v-1c-.5,.6-1.4,1.1-2.3,1.1-2.1,0-3.7-1.8-3.7-3.9s1.6-3.9,3.7-3.9Zm-1.9,3.9c0,1.2,1,2.1,2.1,2.1s2.1-1,2.1-2.1-1-2.1-2.1-2.1-2.1,.9-2.1,2.1Z"/><path class="cls-6" d="M249.4,204.48c.9,0,1.8,.5,2.3,1.1v-.9h1.8v7.3c0,2.2-1.5,3.6-4,3.6-1.2,0-2.4-.4-3.3-1.2l1.2-1.2c.6,.5,1.4,.8,2.1,.8,1.4,0,2.2-.7,2.2-1.8v-.9c-.5,.6-1.4,1.1-2.3,1.1-2.1,0-3.7-1.8-3.7-3.9-.1-2.2,1.5-4,3.7-4h0Zm-2,3.9c0,1.2,1,2.1,2.1,2.1s2.1-1,2.1-2.1-1-2.1-2.1-2.1-2.1,.9-2.1,2.1Z"/><path class="cls-6" d="M258.9,204.48c2.1,0,3.6,1.6,3.6,3.8,0,.3,0,.6-.1,.9h-5.6c.3,.9,1.1,1.5,2.2,1.5,.7,0,1.4-.3,1.9-.8l1.1,1.1c-.7,.8-1.8,1.2-3,1.2-2.3,0-4-1.7-4-3.9s1.7-3.8,3.9-3.8Zm-2.1,3.3h4c-.1-1.1-.9-1.7-2-1.7-1,0-1.9,.7-2,1.7Z"/><path class="cls-6" d="M264.1,212.18v-7.5h1.8v.9c.5-.6,1.3-1,2.2-1v1.7h-.2c-1.1,0-2.1,.8-2.1,1.9v4h-1.7Z"/></g><rect class="cls-2" x="124.85" y="188.28" width="96.9" height="3.1"/></svg>