<svg id="Calque_1" data-name="Calque 1" xmlns="http://www.w3.org/2000/svg" viewBox="0 0 772.91 562.98"><defs><style>.cls-1{fill:#fffdfa;}.cls-2{fill:#d9aa39;}.cls-3{fill:#f4f4f3;}.cls-4{fill:#e3c887;}</style></defs><rect class="cls-1" width="754.09" height="562.98"/><path class="cls-2" d="M753.05,229.55q0-110.67,0-221.34c0-1.81.1-3.62.15-5.43C751.75,0,749.14,1.1,747,1.1Q601.08,1,455.16,1.06c-1.48,0-3,.07-4.45.11-.22,1.61,1,2.35,2,3.13q52.54,39.44,105.11,78.85,65.35,49.11,130.64,98.31c12.89,9.71,25.74,19.47,38.64,29.16Z"/><path class="cls-3" d="M750.33,230.87c-15.23-7.92-15.38-6.76-30.6-14.69q-41.1-21.42-82.18-42.87-34.34-17.94-68.64-36L499.3,100.87q-34.56-18.11-69.12-36.22c-22.4-11.75-45-23.15-67.13-35.36C346.3,20.05,328.7,12.45,312.53,2.11c1.6-1.8,3.71-1.07,5.6-1.07Q354.85,1,391.56,1c1,2.18,3.21,2.89,5,4q62.85,39.62,125.8,79.08c74.5,46.91,153.43,96.59,228,143.42Z"/><path class="cls-4" d="M461.63,4.77q59.48,44.61,119,89.22,74,55.58,147.85,111.26l24.61,17.09v6.87l-.51-.36q-116-71.57-231.81-143.39Q455.51,45.13,390.23,4.89C388.4,3.76,386.09,3,385.06.81q34.38,0,68.75,0h2.4Z"/><path class="cls-4" d="M732.3,215.58a2.6,2.6,0,0,1-3-1.93C730.78,213.57,732.09,213.73,732.3,215.58Z"/></svg>