<svg id="Calque_1" data-name="Calque 1" xmlns="http://www.w3.org/2000/svg" xmlns:xlink="http://www.w3.org/1999/xlink" viewBox="0 0 129.7 129.7"><defs><style>.cls-1{fill:#fff;}.cls-2{fill:url(#Dégradé_sans_nom);}.cls-3{fill:url(#Dégradé_sans_nom_2);}.cls-4{fill:url(#Dégradé_sans_nom_3);}.cls-5{fill:url(#Dégradé_sans_nom_4);}</style><linearGradient id="Dégradé_sans_nom" x1="24.18" y1="66.49" x2="101.91" y2="66.49" gradientTransform="matrix(1, 0, 0, -1, 0, 132.06)" gradientUnits="userSpaceOnUse"><stop offset="0" stop-color="#49a3a3"/><stop offset="1" stop-color="#aad9dd"/></linearGradient><linearGradient id="Dégradé_sans_nom_2" x1="28.23" y1="76.57" x2="97.73" y2="46.36" gradientTransform="matrix(1, 0, 0, -1, 0, 132.06)" gradientUnits="userSpaceOnUse"><stop offset="0" stop-color="#b67331"/><stop offset="0.6" stop-color="#daab39"/></linearGradient><linearGradient id="Dégradé_sans_nom_3" x1="24.18" y1="67.21" x2="105.52" y2="67.21" gradientTransform="matrix(1, 0, 0, -1, 0, 132.06)" gradientUnits="userSpaceOnUse"><stop offset="0.25" stop-color="#b67331"/><stop offset="0.69" stop-color="#daab39"/></linearGradient><linearGradient id="Dégradé_sans_nom_4" x1="25.11" y1="86.89" x2="97.73" y2="59.17" gradientTransform="matrix(1, 0, 0, -1, 0, 132.06)" gradientUnits="userSpaceOnUse"><stop offset="0.28" stop-color="#daab39"/><stop offset="0.85" stop-color="#b67331"/></linearGradient></defs><circle class="cls-1" cx="64.85" cy="64.85" r="64.85"/><path class="cls-2" d="M44,24.6a10.15,10.15,0,0,0-4.14,4.74L25,64.38A10.12,10.12,0,0,0,27.8,76.1L63.31,106a2.39,2.39,0,0,0,3.08,0L101.91,76.1C56.16,72.13,44.06,24.81,44,24.6Z"/><path class="cls-3" d="M45.25,28.51A2.62,2.62,0,0,0,40.57,28a9.58,9.58,0,0,0-.7,1.35L25.05,64.23a10.34,10.34,0,0,0,2.87,12l35.24,29.64a2.6,2.6,0,0,0,3.36,0L97.36,79.92a2.62,2.62,0,0,0-1.24-4.58C62.59,69.42,49.08,39.37,45.25,28.51Z"/><path class="cls-4" d="M104.71,64.38l-14.89-35a10.11,10.11,0,0,0-9.33-6.17H49.2a10.15,10.15,0,0,0-9.33,6.17L25,64.38A10.12,10.12,0,0,0,27.8,76.1L63.31,106a2.39,2.39,0,0,0,3.08,0L101.91,76.1A10.13,10.13,0,0,0,104.71,64.38ZM64.85,74.47A14.34,14.34,0,1,1,79.19,60.13,14.34,14.34,0,0,1,64.85,74.47Z"/><path class="cls-5" d="M88.71,87.19l13.2-11.09c-45.75-4-57.85-51.29-57.9-51.5a10.15,10.15,0,0,0-4.14,4.74L25,64.38a10,10,0,0,0-.77,4.8S47.49,89.14,88.71,87.19Z"/></svg>